# xmcd
#
# Track frame offsets:
# 150
# 22041
# 46209
# 55382
# 74376
# 103942
# 134852
# 159746
# 190095
# 207215
# 246670
#
# Disc length: 3817 seconds
#
#
# Revision: 0
# Processed by: cddbd v1.5.1PL2 Copyright (c) Steve Scherf et al.
# Submitted via: FreeRIP 2.944 
#
DISCID=ae0ee70b
DTITLE=Various Artist - Post Clasics
DYEAR=1900
DGENRE=
TTITLE0=Debusse - Reverie
TTITLE1=Mozart - Andante
TTITLE2=Vivaldi - Winter (Four Seasons)
TTITLE3=Mozart - Minuetto
TTITLE4=Bach - Prelude No 1
TTITLE5=Beethoven - Moonlight Sonata
TTITLE6=Anonymous - Romanza de Amor
TTITLE7=Ravel - Pavanne for a Dead Princess
TTITLE8=Tchaikovsky - Swan Lake
TTITLE9=Granados - Bocetos
TTITLE10=Data
EXTD=
EXTT0=
EXTT1=
EXTT2=
EXTT3=
EXTT4=
EXTT5=
EXTT6=
EXTT7=
EXTT8=
EXTT9=
EXTT10=
PLAYORDER=
